<svg xmlns="http://www.w3.org/2000/svg" fill="none" viewBox="0 0 1440 522"><path fill="#fff" fill-rule="evenodd" d="M1163.89-205.424c21.12-23.963 60.32-15.63 69.88 14.853l114.11 364.163c9.39 29.936-16.96 58.887-47.64 52.364l-366.492-77.899c-30.685-6.522-42.976-43.685-22.23-67.217l252.372-286.264ZM254.539-323.259c-3.117-31.792 29.711-54.779 58.52-40.976L657.22-199.336c28.291 13.555 31.498 52.566 5.8 70.56L356.104 86.129c-25.698 17.993-61.259 1.637-64.321-29.584L254.539-323.26ZM-71.46 71.741c-3.119-31.792 29.71-54.78 58.52-40.976l344.16 164.899c28.291 13.555 31.498 52.566 5.8 70.56L30.104 481.129c-25.698 17.993-61.26 1.637-64.32-29.584L-71.462 71.741Z" clip-rule="evenodd" opacity=".081"/></svg>